<svg xmlns="http://www.w3.org/2000/svg" width="100" height="72" viewBox="0 0 100 72">
    <g fill="#FFF" fill-rule="evenodd">
        <path d="M70.825 0a39.645 39.645 0 0 1 21.523 6.344 5.155 5.155 0 0 1 2.353 4.353v53.115a5.133 5.133 0 0 1-2.496 4.427 5.182 5.182 0 0 1-5.105.15 34.831 34.831 0 0 0-18.427-3.962 34.773 34.773 0 0 0-17.475 5.963v.073l-.308.171-.064.103-.223.073-.1.109-.303.073c-.035.01-.09.028-.154.042a.677.677 0 0 1-.193.05c-.046.017-.083.03-.116.03l-.108.018c-.101.004-.171.004-.262.004h-.026c-.058 0-.164 0-.283-.014a.589.589 0 0 1-.122-.018l-.277-.062h-.01l-.337-.13a.687.687 0 0 0-.07-.04 1.45 1.45 0 0 1-.16-.085l-.581-.32v-.088a34.845 34.845 0 0 0-17.48-5.952 34.9 34.9 0 0 0-18.402 3.962c-.778.404-1.59.6-2.426.6-.93 0-1.859-.26-2.682-.739A5.146 5.146 0 0 1 4 63.812V10.697c0-1.765.865-3.384 2.324-4.342A39.695 39.695 0 0 1 28.645.01c7.4.147 14.535 2.318 20.696 6.299A39.692 39.692 0 0 1 70.048.01c.257-.003.522-.01.777-.01zm-.676 4.843l-1.232.047a34.734 34.734 0 0 0-17.146 5.617v53.874a39.936 39.936 0 0 1 16.593-4.79c7.272-.444 14.6 1.135 20.995 4.515a.308.308 0 0 0 .146.041c.08 0 .158-.032.186-.048l.027-.021c.093-.057.134-.14.134-.266V10.697c0-.126-.06-.246-.122-.288-5.81-3.753-12.603-5.685-19.58-5.566z"/>
        <path d="M82.025 30.897l-6.764-.64a1.174 1.174 0 0 1-.97-.716l-2.422-5.875c-.389-.967-1.765-.967-2.152 0l-2.404 5.875a1.146 1.146 0 0 1-.968.716l-6.767.64c-1.007.097-1.414 1.356-.659 2.035l5.098 4.478c.33.29.466.717.37 1.143l-1.532 6.281c-.232.99.834 1.803 1.725 1.28l5.641-3.316c.37-.213.813-.213 1.183 0l5.64 3.316c.892.523 1.957-.272 1.725-1.28l-1.512-6.281a1.158 1.158 0 0 1 .368-1.143l5.098-4.478c.738-.679.31-1.938-.698-2.035"/>
    </g>
</svg>
